<?xml version="1.0" encoding="utf-8"?>
<svg version="1.1" xmlns="http://www.w3.org/2000/svg" x="0px" y="0px" width="195px" height="86px" viewBox="0 0 195 86">
	<polygon points="17.14,79.82 45.12,80.12 19.03,49.72 16.36,52.52" />
	<polygon points="15.29,15.51 15.88,35.92 36.33,13.77" />
	<path d="m 54.82,12.23 -26.53,28.09 35.14,40 12.39,0.1 c -1.2,-1.5 -2.2,-3.1 -2.9,-4.8 -1.1,-2.5 -1.8,-6.4 -1.9,-11.5 l -1,-32.4 12.9,-0.3 1,32 c 0.2,9.3 4,13.8 11.3,13.6 7.28,-0.2 10.78,-4.9 10.58,-14.2 l -1,-32.1 12.9,-0.3 1,32.3 c 0.1,4.5 -0.3,8.4 -1.4,11.7 -0.7,2.2 -2,4.3 -3.7,6.3 l 17.3,0.1 -2.1,-74.74 z" />
	<path d="m 170.6,81.22 20.4,1 L 190.9,0 165.8,2.99 c 2.3,2.08 4.1,4.6 5.5,7.62 1.6,3.36 2.4,6.78 2.5,10.25 0.2,6.35 -2.1,11.76 -6.8,16.36 4.8,1.4 8.6,4.1 11.4,8.1 2.9,3.9 4.4,8.5 4.5,13.7 0.2,7 -2.1,12.9 -6.8,17.8 -1.7,1.8 -3.6,3.2 -5.5,4.4 z" />
	<path d="m 158,31.32 c 2.2,-2.3 3.3,-5.58 3.2,-9.86 -0.1,-4.17 -1.4,-7.29 -3.9,-9.36 C 154.9,9.99 151.4,9 146.9,9.13 l -4.7,0.13 0.8,25.76 4.1,-0.1 c 5,-0.2 8.6,-1.4 10.9,-3.6 z" />
	<path d="m 165.1,49.42 c -2.8,-2.5 -7.9,-3.6 -15,-3.4 l -6.8,0.2 0.8,26.8 8.2,-0.3 c 6.1,-0.2 10.5,-1.5 13.2,-3.9 2.9,-2.7 4.3,-6 4.2,-9.9 -0.1,-3.8 -1.6,-7 -4.6,-9.5 z" />
	<polygon points="1.81,79.72 3.97,79.82 2.16,16.59 0,16.76" />
</svg>
